<svg aria-hidden="true" style="position: absolute; width: 0; height: 0; overflow: hidden;" version="1.1" xmlns="http://www.w3.org/2000/svg" xmlns:xlink="http://www.w3.org/1999/xlink">
<symbol id="icon-back-arrow" viewBox="0 0 32 32">
<path d="M28 14h-19.2l4.62-4.62c0.394-0.394 0.58-0.864 0.58-1.38 0-0.984-0.813-2-2-2-0.531 0-0.994 0.193-1.38 0.58l-7.958 7.958c-0.328 0.328-0.662 0.733-0.662 1.462s0.279 1.080 0.646 1.447l7.974 7.973c0.386 0.387 0.849 0.58 1.38 0.58 1.188 0 2-1.016 2-2 0-0.516-0.186-0.986-0.58-1.38l-4.62-4.62h19.2c1.104 0 2-0.896 2-2s-0.896-2-2-2z"></path>
</symbol>
<symbol id="icon-arrow-left2" viewBox="0 0 32 32">
<path d="M12.586 27.414l-10-10c-0.781-0.781-0.781-2.047 0-2.828l10-10c0.781-0.781 2.047-0.781 2.828 0s0.781 2.047 0 2.828l-6.586 6.586h19.172c1.105 0 2 0.895 2 2s-0.895 2-2 2h-19.172l6.586 6.586c0.39 0.39 0.586 0.902 0.586 1.414s-0.195 1.024-0.586 1.414c-0.781 0.781-2.047 0.781-2.828 0z"></path>
</symbol>
</svg>